# Blender 4.0.0
# www.blender.org
mtllib hellskybox2.mtl
o Cube
v 2.493038 2.493038 -2.493038
v 2.493038 -2.493038 -2.493038
v 2.493038 2.493038 2.493038
v 2.493038 -2.493038 2.493038
v -2.493038 2.493038 -2.493038
v -2.493038 -2.493038 -2.493038
v -2.493038 2.493038 2.493038
v -2.493038 -2.493038 2.493038
vn -0.0000 -1.0000 -0.0000
vn -0.0000 -0.0000 -1.0000
vn 1.0000 -0.0000 -0.0000
vn -0.0000 1.0000 -0.0000
vn -1.0000 -0.0000 -0.0000
vn -0.0000 -0.0000 1.0000
vt 0.002053 0.945269
vt 0.002722 0.752932
vt 0.998715 0.743499
vt 0.997009 0.942745
vt 0.340631 0.354389
vt 0.694901 0.352130
vt 0.694077 0.749780
vt 0.342710 0.750334
vt 0.000865 0.357390
vt 0.339438 0.359677
vt 0.344481 0.746835
vt 0.003933 0.746285
vt 0.997341 0.058328
vt 0.997080 0.354487
vt -0.001038 0.351178
vt 0.002178 0.062019
vt 0.691563 0.356972
vt 0.997446 0.351832
vt 0.996319 0.745665
vt 0.694365 0.748999
vt 0.343370 0.360331
vt 0.693714 0.360260
vt 0.695166 0.750957
vt 0.343906 0.749154
s 0
usemtl Material
f 1/1/1 3/2/1 7/3/1 5/4/1
f 4/5/2 8/6/2 7/7/2 3/8/2
f 8/9/3 6/10/3 5/11/3 7/12/3
f 6/13/4 8/14/4 4/15/4 2/16/4
f 2/17/5 4/18/5 3/19/5 1/20/5
f 6/21/6 2/22/6 1/23/6 5/24/6
